<?xml version="1.0" standalone="no"?>
<!DOCTYPE svg PUBLIC "-//W3C//DTD SVG 20010904//EN"
 "http://www.w3.org/TR/2001/REC-SVG-20010904/DTD/svg10.dtd">
<svg version="1.0" xmlns="http://www.w3.org/2000/svg"
 width="512.000000pt" height="512.000000pt" viewBox="0 0 512.000000 512.000000"
 preserveAspectRatio="xMidYMid meet">
<metadata>
Created by potrace 1.11, written by Peter Selinger 2001-2013
</metadata>
<g transform="translate(0.000000,512.000000) scale(0.100000,-0.100000)"
fill="#000000" stroke="none">
<path d="M1922 3884 c-111 -32 -186 -126 -229 -286 -13 -45 -18 -100 -17 -193
0 -109 5 -146 28 -230 41 -153 109 -278 202 -372 18 -18 37 -33 43 -33 6 0 11
-4 11 -9 0 -26 130 -70 194 -65 270 18 388 460 224 847 -105 248 -294 389
-456 341z"/>
<path d="M3072 3884 c-175 -45 -321 -244 -383 -519 -17 -79 -21 -293 -6 -354
39 -156 123 -271 220 -304 174 -58 376 94 483 365 42 105 55 177 60 311 3 105
0 143 -15 207 -34 137 -93 226 -177 272 -61 32 -115 39 -182 22z"/>
<path d="M1044 3168 c-125 -66 -184 -172 -189 -343 -12 -379 293 -803 572
-796 261 6 358 352 202 713 -50 116 -101 190 -189 279 -111 112 -189 152 -301
155 -41 1 -84 -3 -95 -8z"/>
<path d="M3900 3162 c-105 -33 -198 -105 -290 -226 -42 -56 -90 -134 -95 -156
-1 -3 -11 -27 -23 -53 -55 -121 -80 -307 -59 -436 17 -106 85 -205 167 -240
125 -54 279 -3 416 136 40 42 76 84 79 94 4 11 10 19 14 19 10 0 85 142 110
210 86 231 68 479 -42 589 -23 23 -55 49 -72 57 -45 24 -140 27 -205 6z"/>
<path d="M2525 2553 c-137 -24 -228 -95 -340 -265 -36 -53 -73 -108 -84 -120
-11 -13 -36 -43 -56 -68 -86 -106 -225 -235 -336 -311 -177 -121 -249 -210
-285 -349 -20 -80 -15 -231 11 -305 17 -48 66 -129 102 -170 50 -55 162 -122
253 -150 97 -29 157 -33 330 -21 395 27 694 27 840 0 19 -4 98 -7 175 -7 221
0 357 43 460 147 113 113 151 306 92 473 -40 115 -107 203 -231 301 -116 91
-213 196 -330 354 -42 57 -81 108 -86 115 -5 7 -35 54 -66 105 -67 111 -100
148 -177 199 -86 56 -195 85 -272 72z"/>
</g>
</svg>
